<?xml version="1.0" encoding="utf-8"?>
<!-- Generator: Adobe Illustrator 19.1.0, SVG Export Plug-In . SVG Version: 6.00 Build 0)  -->
<svg version="1.1" id="Layer_1" xmlns="http://www.w3.org/2000/svg" xmlns:xlink="http://www.w3.org/1999/xlink" x="0px" y="0px"
	 viewBox="-86 326.3 438.3 140.7" style="enable-background:new -86 326.3 438.3 140.7;" xml:space="preserve">
<style type="text/css">
	.st0{fill:#FFFFFF;}
	.st1{fill:#F99300;}
</style>
<path class="st0" d="M21.8,432.3c0-6.9,2.9-12.3,8.8-16.2c5.8-3.9,13.9-5.8,24.2-5.8c4.4,0,8.6,0.3,12.7,0.8
	c-0.3-5.9-1.9-10.1-4.8-12.7c-2.9-2.6-7.7-3.8-14.4-3.8c-6.1,0-12.5,1.2-19.4,3.5v-10.9c6.6-2.5,13.7-3.8,21.1-3.8
	c9.7,0,17.3,2.5,22.6,7.6c5.3,5,8,12.3,8,21.7v20.2c0,1.5-0.2,3-0.4,4.5c-0.3,1.5-1,3.4-2.1,5.7c-1.1,2.3-2.6,4.4-4.6,6.1
	c-1.9,1.7-4.8,3.2-8.7,4.5c-3.8,1.3-8.3,1.9-13.3,1.9c-5.2,0-9.7-0.7-13.6-2c-3.9-1.3-6.8-2.8-8.8-4.6c-2-1.7-3.5-3.8-4.7-6.2
	c-1.2-2.4-1.9-4.3-2.2-5.9C22,435.3,21.8,433.8,21.8,432.3z M34.6,432.1c0,7.9,5.6,11.8,16.8,11.8c0,0,0.1,0,0.2,0
	c10.6,0,15.8-3.8,15.8-11.4v-11.3c-3.4-0.5-7.4-0.8-12.1-0.9c-1.9,0-3.8,0.2-5.9,0.5s-4.3,0.9-6.6,1.6c-2.4,0.7-4.3,1.9-5.9,3.6
	C35.4,427.8,34.6,429.8,34.6,432.1z"/>
<path class="st0" d="M91.1,454.4v-64c11.7-4.7,23-7,34.1-7v11.8c-7,0.1-14,1.1-21.3,2.9v56.3H91.1z"/>
<path class="st1" d="M122.5,454.4v-12.2h13.1v12.2H122.5z"/>
<path class="st0" d="M149,373.7v-13.5h13.6v13.5H149z M149.4,454.4v-69.9h12.8v69.9H149.4z"/>
<path class="st0" d="M177,454.4v-64c9.7-4.8,19.6-7.2,29.8-7.2c8.9,0,15.8,2.3,20.8,6.9c5,4.6,7.5,11,7.5,19.2v45.1H222v-46.1
	c0-4.1-1.1-7.4-3.2-9.7c-2.1-2.4-6.3-3.6-12.7-3.6c-5.7,0-11.2,0.8-16.5,2.5v56.8H177z"/>
<path class="st0" d="M243,395.7v-11.2h9.8v-3.4c0-17.4,7.8-26.1,23.3-26.1c2.6,0,5.1,0.3,7.6,1v11.1c-1.9-0.4-3.6-0.5-5.2-0.5
	c-2.1,0-3.8,0.1-4.9,0.3c-1.1,0.2-2.4,0.7-3.9,1.5c-1.5,0.8-2.5,2.3-3.1,4.4c-0.6,2.1-1,4.9-1,8.3v3.4h18.1v11.2h-18.1v58.7h-12.8
	v-58.7H243z"/>
<path class="st0" d="M289.2,437.5c-2-5-3-11-3-18.1c0-7.1,1-13.1,3-18.1c2-5,4.6-8.7,8-11.1c3.4-2.5,6.9-4.2,10.4-5.2
	c3.5-1,7.4-1.5,11.6-1.5s8.1,0.5,11.6,1.5c3.5,1,7,2.8,10.4,5.2c3.4,2.5,6.1,6.2,8,11.1c2,5,3,11,3,18.1c0,7.1-1,13.1-3,18.1
	c-2,5-4.6,8.7-8,11.1c-3.4,2.5-6.9,4.2-10.4,5.2c-3.5,1-7.4,1.5-11.6,1.5s-8.1-0.5-11.6-1.5c-3.5-1-7-2.8-10.4-5.2
	C293.9,446.2,291.2,442.5,289.2,437.5z M300.9,406.6c-1,3.4-1.5,7.7-1.5,12.9c0,5.2,0.5,9.5,1.5,12.9c1,3.4,2.6,5.9,4.6,7.5
	c2,1.6,4.1,2.7,6.2,3.3c2.1,0.5,4.6,0.8,7.6,0.8c3,0,5.5-0.3,7.6-0.8c2.1-0.5,4.2-1.6,6.2-3.3c2-1.6,3.6-4.1,4.6-7.5
	c1-3.4,1.5-7.7,1.5-12.9c0-5.2-0.5-9.5-1.5-12.9c-1-3.4-2.6-5.9-4.6-7.5c-2-1.6-4.1-2.7-6.2-3.3c-2.1-0.5-4.6-0.8-7.6-0.8
	c-3,0-5.5,0.3-7.6,0.8c-2.1,0.5-4.2,1.6-6.2,3.3C303.4,400.7,301.9,403.2,300.9,406.6z"/>
<path d="M-14.7,419.7c-0.9,0-1.7-0.1-2.6-0.3c-7-1.4-11.6-8.3-10.2-15.3c1-5.2,5.1-9.2,10.2-10.2l16.3-47.5c0.2-0.6,0.8-1,1.3-1
	c0.1,0,0.3,0,0.4,0.1l3.3,1c0.7,0.2,1.1,1,1,1.7l-11.5,48.5c3.6,3,5.3,7.8,4.4,12.5C-3.1,415.3-8.5,419.7-14.7,419.7
	C-14.7,419.7-14.7,419.7-14.7,419.7z"/>
<path d="M-7.9,397.3l11.7-49.4l-3.3-1l-16.6,48.3c-4.8,0.6-8.9,4.2-9.9,9.2c-1.3,6.3,2.8,12.4,9.1,13.6c6.3,1.3,12.4-2.8,13.6-9.1
	C-2.4,404.4-4.4,399.9-7.9,397.3z"/>
<path class="st1" d="M-25.2,457.6c-16.7-1.2-27-7.9-33.9-18.1c-6-8.9-9.3-23.5-5.2-42.6c3.9-18,12.2-29.4,21.9-34.1
	c9.8-4.8,21.7-4.3,31.7-2.4c0.2,0,0.3,0.1,0.5,0.1l5.3-15.4c0.8-2.3,2.9-3.8,5.4-3.8c0.6,0,1.1,0.1,1.6,0.2l3.3,1
	c2.9,0.9,4.6,3.8,3.9,6.7l-3.9,16.4c4.7,2.4,9.1,5.5,12.8,9.5l24.2-37.9C30.4,330,14.6,327-1.8,326.4c-6.5-0.3-22.6,1.2-28.5,2.3
	c-5.9,1.1-12,3.2-18.5,6.3c-6.4,3.2-12,7.3-16.7,12.3c-4.7,5-8.9,11.8-12.4,20.2c-3.6,8.5-6,18.3-7.2,29.5c-1.3,11.2-1,21,0.6,29.5
	c1.7,8.5,4.3,15.2,7.9,20.2c3.6,5,8.2,9.1,13.9,12.3c5.7,3.2,11.4,5.3,17,6.4c5.7,1.1,11.8,1.6,18.3,1.6c14.8,0,32.1-3.8,47-9.3
	l-1-3.8C2.2,459.4-13.8,458.4-25.2,457.6z"/>
<path class="st1" d="M-14.7,419.7c-0.9,0-1.7-0.1-2.6-0.3c-7-1.4-11.6-8.3-10.2-15.3c1-5.2,5.1-9.2,10.2-10.2l16.3-47.5
	c0.2-0.6,0.8-1,1.3-1c0.1,0,0.3,0,0.4,0.1l3.3,1c0.7,0.2,1.1,1,1,1.7l-11.5,48.5c3.6,3,5.3,7.8,4.4,12.5
	C-3.1,415.3-8.5,419.7-14.7,419.7C-14.7,419.7-14.7,419.7-14.7,419.7z"/>
</svg>
